<svg width="7" height="17" viewBox="0 0 7 17" fill="none" xmlns="http://www.w3.org/2000/svg">
<path d="M3.49976 9.29688C3.93986 9.29688 4.29663 8.9401 4.29663 8.5C4.29663 8.0599 3.93986 7.70312 3.49976 7.70312C3.05965 7.70312 2.70288 8.0599 2.70288 8.5C2.70288 8.9401 3.05965 9.29688 3.49976 9.29688Z" fill="black"/>
<path d="M5.35921 12.5488L4.29671 13.6113V11.1563C4.29671 10.9449 4.21276 10.7422 4.06331 10.5928C3.91387 10.4433 3.71118 10.3594 3.49984 10.3594C3.28849 10.3594 3.0858 10.4433 2.93636 10.5928C2.78692 10.7422 2.70296 10.9449 2.70296 11.1563V13.6113L1.64046 12.5488C1.49956 12.4079 1.30847 12.3288 1.10921 12.3288C0.909954 12.3288 0.718857 12.4079 0.577961 12.5488C0.437065 12.6897 0.35791 12.8808 0.35791 13.0801C0.35791 13.2793 0.437065 13.4704 0.577961 13.6113L2.93635 15.9697C3.01034 16.0437 3.09819 16.1024 3.19488 16.1425C3.29156 16.1825 3.39519 16.2031 3.49984 16.2031C3.60449 16.2031 3.70811 16.1825 3.8048 16.1425C3.90148 16.1024 3.98933 16.0437 4.06333 15.9697L6.42171 13.6113C6.56261 13.4704 6.64176 13.2793 6.64176 13.0801C6.64176 12.8808 6.56261 12.6897 6.42171 12.5488C6.28082 12.4079 6.08972 12.3288 5.89046 12.3288C5.6912 12.3288 5.50011 12.4079 5.35921 12.5488Z" fill="black"/>
<path d="M0.577967 4.45121C0.647731 4.52097 0.730554 4.57632 0.821706 4.61407C0.912858 4.65183 1.01055 4.67126 1.10922 4.67126C1.20788 4.67126 1.30558 4.65183 1.39673 4.61407C1.48788 4.57632 1.5707 4.52097 1.64047 4.45121L2.70297 3.38871V5.84378C2.70297 6.05512 2.78692 6.25781 2.93637 6.40726C3.08581 6.5567 3.2885 6.64065 3.49984 6.64065C3.71119 6.64065 3.91388 6.5567 4.06332 6.40726C4.21276 6.25781 4.29672 6.05512 4.29672 5.84378V3.38871L5.35922 4.45121C5.42898 4.52097 5.5118 4.57632 5.60296 4.61407C5.69411 4.65183 5.79181 4.67126 5.89047 4.67126C5.98913 4.67126 6.08683 4.65183 6.17798 4.61407C6.26913 4.57632 6.35195 4.52097 6.42172 4.45121C6.49148 4.38144 6.54683 4.29862 6.58458 4.20747C6.62234 4.11632 6.64178 4.01862 6.64178 3.91996C6.64178 3.82129 6.62234 3.7236 6.58458 3.63245C6.54683 3.54129 6.49148 3.45847 6.42172 3.38871L4.06333 1.03029C3.98934 0.956288 3.90149 0.897587 3.8048 0.857537C3.70812 0.817488 3.60449 0.796875 3.49984 0.796875C3.39519 0.796875 3.29157 0.817488 3.19488 0.857537C3.0982 0.897587 3.01035 0.956288 2.93635 1.03029L0.577967 3.38871C0.508201 3.45847 0.452859 3.54129 0.415101 3.63245C0.377344 3.7236 0.35791 3.82129 0.35791 3.91996C0.35791 4.01862 0.377344 4.11632 0.415101 4.20747C0.452859 4.29862 0.508201 4.38144 0.577967 4.45121Z" fill="black"/>
</svg>
