<svg width="310" height="240" viewBox="0 0 310 240" fill="none" xmlns="http://www.w3.org/2000/svg">
<rect width="310" height="240" fill="#DFDFDF"/>
<path d="M60.665 114.5V125H59.165V120.32H53.135V125H51.635V114.5H53.135V119.015H59.165V114.5H60.665ZM70.8847 121.07C70.8847 121.18 70.8747 121.325 70.8547 121.505H64.4047C64.4947 122.205 64.7997 122.77 65.3197 123.2C65.8497 123.62 66.5047 123.83 67.2847 123.83C68.2347 123.83 68.9997 123.51 69.5797 122.87L70.3747 123.8C70.0147 124.22 69.5647 124.54 69.0247 124.76C68.4947 124.98 67.8997 125.09 67.2397 125.09C66.3997 125.09 65.6547 124.92 65.0047 124.58C64.3547 124.23 63.8497 123.745 63.4897 123.125C63.1397 122.505 62.9647 121.805 62.9647 121.025C62.9647 120.255 63.1347 119.56 63.4747 118.94C63.8247 118.32 64.2997 117.84 64.8997 117.5C65.5097 117.15 66.1947 116.975 66.9547 116.975C67.7147 116.975 68.3897 117.15 68.9797 117.5C69.5797 117.84 70.0447 118.32 70.3747 118.94C70.7147 119.56 70.8847 120.27 70.8847 121.07ZM66.9547 118.19C66.2647 118.19 65.6847 118.4 65.2147 118.82C64.7547 119.24 64.4847 119.79 64.4047 120.47H69.5047C69.4247 119.8 69.1497 119.255 68.6797 118.835C68.2197 118.405 67.6447 118.19 66.9547 118.19ZM78.7067 118.31H75.7967V125H74.3567V118.31H71.4467V117.05H78.7067V118.31ZM91.5725 117.05V125H90.1325V118.31H85.6475V125H84.2075V117.05H91.5725ZM98.5739 116.975C99.3439 116.975 100.034 117.145 100.644 117.485C101.254 117.825 101.729 118.3 102.069 118.91C102.419 119.52 102.594 120.225 102.594 121.025C102.594 121.825 102.419 122.535 102.069 123.155C101.729 123.765 101.254 124.24 100.644 124.58C100.034 124.92 99.3439 125.09 98.5739 125.09C98.0039 125.09 97.4789 124.98 96.9989 124.76C96.5289 124.54 96.1289 124.22 95.7989 123.8V127.91H94.3589V117.05H95.7389V118.31C96.0589 117.87 96.4639 117.54 96.9539 117.32C97.4439 117.09 97.9839 116.975 98.5739 116.975ZM98.4539 123.83C98.9639 123.83 99.4189 123.715 99.8189 123.485C100.229 123.245 100.549 122.915 100.779 122.495C101.019 122.065 101.139 121.575 101.139 121.025C101.139 120.475 101.019 119.99 100.779 119.57C100.549 119.14 100.229 118.81 99.8189 118.58C99.4189 118.35 98.9639 118.235 98.4539 118.235C97.9539 118.235 97.4989 118.355 97.0889 118.595C96.6889 118.825 96.3689 119.15 96.1289 119.57C95.8989 119.99 95.7839 120.475 95.7839 121.025C95.7839 121.575 95.8989 122.065 96.1289 122.495C96.3589 122.915 96.6789 123.245 97.0889 123.485C97.4989 123.715 97.9539 123.83 98.4539 123.83ZM111.871 121.07C111.871 121.18 111.861 121.325 111.841 121.505H105.391C105.481 122.205 105.786 122.77 106.306 123.2C106.836 123.62 107.491 123.83 108.271 123.83C109.221 123.83 109.986 123.51 110.566 122.87L111.361 123.8C111.001 124.22 110.551 124.54 110.011 124.76C109.481 124.98 108.886 125.09 108.226 125.09C107.386 125.09 106.641 124.92 105.991 124.58C105.341 124.23 104.836 123.745 104.476 123.125C104.126 122.505 103.951 121.805 103.951 121.025C103.951 120.255 104.121 119.56 104.461 118.94C104.811 118.32 105.286 117.84 105.886 117.5C106.496 117.15 107.181 116.975 107.941 116.975C108.701 116.975 109.376 117.15 109.966 117.5C110.566 117.84 111.031 118.32 111.361 118.94C111.701 119.56 111.871 120.27 111.871 121.07ZM107.941 118.19C107.251 118.19 106.671 118.4 106.201 118.82C105.741 119.24 105.471 119.79 105.391 120.47H110.491C110.411 119.8 110.136 119.255 109.666 118.835C109.206 118.405 108.631 118.19 107.941 118.19ZM119.52 120.875C120.55 121.135 121.065 121.78 121.065 122.81C121.065 123.51 120.8 124.05 120.27 124.43C119.75 124.81 118.97 125 117.93 125H114.105V117.05H117.795C118.735 117.05 119.47 117.23 120 117.59C120.53 117.94 120.795 118.44 120.795 119.09C120.795 119.51 120.68 119.875 120.45 120.185C120.23 120.485 119.92 120.715 119.52 120.875ZM115.515 120.47H117.675C118.225 120.47 118.64 120.37 118.92 120.17C119.21 119.97 119.355 119.68 119.355 119.3C119.355 118.54 118.795 118.16 117.675 118.16H115.515V120.47ZM117.825 123.89C118.425 123.89 118.875 123.795 119.175 123.605C119.475 123.415 119.625 123.12 119.625 122.72C119.625 122.31 119.485 122.005 119.205 121.805C118.935 121.605 118.505 121.505 117.915 121.505H115.515V123.89H117.825ZM126.994 119.75C128.004 119.76 128.774 119.99 129.304 120.44C129.834 120.89 130.099 121.525 130.099 122.345C130.099 123.205 129.809 123.87 129.229 124.34C128.659 124.8 127.839 125.025 126.769 125.015L123.319 125V117.05H124.759V119.735L126.994 119.75ZM126.649 123.92C127.299 123.93 127.789 123.8 128.119 123.53C128.459 123.26 128.629 122.86 128.629 122.33C128.629 121.81 128.464 121.43 128.134 121.19C127.814 120.95 127.319 120.825 126.649 120.815L124.759 120.785V123.905L126.649 123.92ZM138.982 116.975C139.752 116.975 140.442 117.15 141.052 117.5C141.662 117.84 142.142 118.32 142.492 118.94C142.842 119.55 143.017 120.245 143.017 121.025C143.017 121.805 142.842 122.505 142.492 123.125C142.142 123.735 141.662 124.215 141.052 124.565C140.442 124.915 139.752 125.09 138.982 125.09C138.282 125.09 137.647 124.945 137.077 124.655C136.507 124.365 136.037 123.96 135.667 123.44C135.307 122.91 135.082 122.31 134.992 121.64H133.387V125H131.947V117.05H133.387V120.305H135.007C135.107 119.645 135.337 119.065 135.697 118.565C136.067 118.055 136.532 117.665 137.092 117.395C137.662 117.115 138.292 116.975 138.982 116.975ZM138.982 123.83C139.472 123.83 139.912 123.715 140.302 123.485C140.702 123.255 141.017 122.93 141.247 122.51C141.477 122.08 141.592 121.585 141.592 121.025C141.592 120.475 141.477 119.99 141.247 119.57C141.017 119.14 140.702 118.81 140.302 118.58C139.912 118.35 139.472 118.235 138.982 118.235C138.492 118.235 138.047 118.35 137.647 118.58C137.247 118.81 136.932 119.14 136.702 119.57C136.482 119.99 136.372 120.475 136.372 121.025C136.372 121.585 136.482 122.08 136.702 122.51C136.932 122.93 137.247 123.255 137.647 123.485C138.047 123.715 138.492 123.83 138.982 123.83ZM157.2 123.74V126.845H155.85V125H149.205V126.845H147.84V123.74H148.26C148.77 123.71 149.12 123.35 149.31 122.66C149.5 121.97 149.63 120.995 149.7 119.735L149.82 117.05H155.985V123.74H157.2ZM151.02 119.84C150.98 120.84 150.895 121.67 150.765 122.33C150.645 122.98 150.42 123.45 150.09 123.74H154.545V118.31H151.095L151.02 119.84ZM165.901 117.05V125H164.461V118.31H161.041L160.951 120.08C160.901 121.15 160.806 122.045 160.666 122.765C160.526 123.475 160.296 124.045 159.976 124.475C159.656 124.905 159.211 125.12 158.641 125.12C158.381 125.12 158.086 125.075 157.756 124.985L157.846 123.77C157.976 123.8 158.096 123.815 158.206 123.815C158.606 123.815 158.906 123.64 159.106 123.29C159.306 122.94 159.436 122.525 159.496 122.045C159.556 121.565 159.611 120.88 159.661 119.99L159.796 117.05H165.901ZM175.06 117.05V125H173.77V122.48H171.46H171.295L169.555 125H168.01L169.945 122.285C169.345 122.105 168.885 121.81 168.565 121.4C168.245 120.98 168.085 120.46 168.085 119.84C168.085 118.93 168.395 118.24 169.015 117.77C169.635 117.29 170.49 117.05 171.58 117.05H175.06ZM169.555 119.885C169.555 120.415 169.72 120.81 170.05 121.07C170.39 121.32 170.895 121.445 171.565 121.445H173.77V118.31H171.625C170.245 118.31 169.555 118.835 169.555 119.885ZM184.193 116.96C185.003 116.96 185.733 117.135 186.383 117.485C187.043 117.835 187.558 118.32 187.928 118.94C188.298 119.56 188.483 120.255 188.483 121.025C188.483 121.805 188.298 122.505 187.928 123.125C187.558 123.745 187.043 124.23 186.383 124.58C185.733 124.93 185.003 125.105 184.193 125.105C183.493 125.105 182.858 124.995 182.288 124.775C181.728 124.555 181.253 124.235 180.863 123.815L181.703 122.975C182.343 123.605 183.153 123.92 184.133 123.92C184.913 123.92 185.578 123.7 186.128 123.26C186.678 122.81 187.008 122.225 187.118 121.505H183.128V120.44H187.088C186.958 119.75 186.623 119.195 186.083 118.775C185.543 118.345 184.893 118.13 184.133 118.13C183.163 118.13 182.353 118.45 181.703 119.09L180.863 118.265C181.253 117.835 181.733 117.51 182.303 117.29C182.873 117.07 183.503 116.96 184.193 116.96ZM196.158 118.31H193.248V125H191.808V118.31H188.898V117.05H196.158V118.31ZM200.684 125.09C199.894 125.09 199.184 124.915 198.554 124.565C197.924 124.215 197.429 123.735 197.069 123.125C196.719 122.505 196.544 121.805 196.544 121.025C196.544 120.245 196.719 119.55 197.069 118.94C197.429 118.32 197.924 117.84 198.554 117.5C199.184 117.15 199.894 116.975 200.684 116.975C201.474 116.975 202.179 117.15 202.799 117.5C203.429 117.84 203.919 118.32 204.269 118.94C204.629 119.55 204.809 120.245 204.809 121.025C204.809 121.805 204.629 122.505 204.269 123.125C203.919 123.735 203.429 124.215 202.799 124.565C202.179 124.915 201.474 125.09 200.684 125.09ZM200.684 123.83C201.194 123.83 201.649 123.715 202.049 123.485C202.459 123.245 202.779 122.915 203.009 122.495C203.239 122.065 203.354 121.575 203.354 121.025C203.354 120.475 203.239 119.99 203.009 119.57C202.779 119.14 202.459 118.81 202.049 118.58C201.649 118.35 201.194 118.235 200.684 118.235C200.174 118.235 199.714 118.35 199.304 118.58C198.904 118.81 198.584 119.14 198.344 119.57C198.114 119.99 197.999 120.475 197.999 121.025C197.999 121.575 198.114 122.065 198.344 122.495C198.584 122.915 198.904 123.245 199.304 123.485C199.714 123.715 200.174 123.83 200.684 123.83ZM212.738 118.31H208.328V125H206.888V117.05H212.738V118.31ZM217.266 125.09C216.476 125.09 215.766 124.915 215.136 124.565C214.506 124.215 214.011 123.735 213.651 123.125C213.301 122.505 213.126 121.805 213.126 121.025C213.126 120.245 213.301 119.55 213.651 118.94C214.011 118.32 214.506 117.84 215.136 117.5C215.766 117.15 216.476 116.975 217.266 116.975C218.056 116.975 218.761 117.15 219.381 117.5C220.011 117.84 220.501 118.32 220.851 118.94C221.211 119.55 221.391 120.245 221.391 121.025C221.391 121.805 221.211 122.505 220.851 123.125C220.501 123.735 220.011 124.215 219.381 124.565C218.761 124.915 218.056 125.09 217.266 125.09ZM217.266 123.83C217.776 123.83 218.231 123.715 218.631 123.485C219.041 123.245 219.361 122.915 219.591 122.495C219.821 122.065 219.936 121.575 219.936 121.025C219.936 120.475 219.821 119.99 219.591 119.57C219.361 119.14 219.041 118.81 218.631 118.58C218.231 118.35 217.776 118.235 217.266 118.235C216.756 118.235 216.296 118.35 215.886 118.58C215.486 118.81 215.166 119.14 214.926 119.57C214.696 119.99 214.581 120.475 214.581 121.025C214.581 121.575 214.696 122.065 214.926 122.495C215.166 122.915 215.486 123.245 215.886 123.485C216.296 123.715 216.756 123.83 217.266 123.83ZM237.744 123.695V127.295H236.349V125H227.709L227.694 127.295H226.299L226.314 123.695H226.824C227.484 123.655 227.949 123.135 228.219 122.135C228.489 121.125 228.654 119.705 228.714 117.875L228.819 114.5H236.199V123.695H237.744ZM230.034 118.01C229.984 119.49 229.864 120.715 229.674 121.685C229.494 122.655 229.199 123.325 228.789 123.695H234.714V115.805H230.109L230.034 118.01ZM246.614 115.805H243.014V125H241.544V115.805H237.959V114.5H246.614V115.805ZM257.482 114.5V125H256.012V115.805H249.922V125H248.437V114.5H257.482Z" fill="black"/>
</svg>
