<svg id="Capa_1" enable-background="new 0 0 512 512" height="512" viewBox="0 0 512 512" width="512" xmlns="http://www.w3.org/2000/svg"><g><circle cx="256" cy="435" r="15"/><path d="m396.042 362.536-59.776-19.925c15.423-18.281 24.734-41.877 24.734-67.611v-75h55c8.284 0 15-6.716 15-15s-6.716-15-15-15h-53.132l15.402-130.91c1.167-9.918-1.97-19.886-8.605-27.348-6.637-7.462-16.17-11.742-26.156-11.742h-175.018c-9.986 0-19.519 4.28-26.155 11.742s-9.772 17.43-8.605 27.347l15.401 130.911h-53.132c-8.284 0-15 6.716-15 15s6.716 15 15 15h55v75c0 25.734 9.311 49.33 24.734 67.61l-59.776 19.925c-38.853 12.952-64.958 49.171-64.958 90.126v44.339c0 8.284 6.716 15 15 15h380c8.284 0 15-6.716 15-15v-44.339c0-40.955-26.105-77.174-64.958-90.125zm-140.042 17.464c8.563 0 16.888-1.038 24.861-2.981l34.994 104.981h-119.71l34.994-104.981c7.973 1.943 16.298 2.981 24.861 2.981zm-91.246-348.323c.557-.626 1.783-1.677 3.736-1.677h175.019c1.953 0 3.179 1.051 3.736 1.677s1.458 1.967 1.229 3.907l-8.754 74.416h-167.44l-8.755-74.416c-.228-1.939.672-3.28 1.229-3.907zm11.056 108.323h160.38l-3.529 30h-153.322zm155.19 60v75c0 41.355-33.645 75-75 75s-75-33.645-75-75v-75zm-250 252.661c0-28.022 17.861-52.803 44.445-61.665l77.053-25.684c.255.152.511.304.768.454l-38.744 116.234h-83.522zm350 29.339h-83.522l-38.744-116.234c.257-.15.512-.302.768-.454l77.053 25.684c26.584 8.862 44.445 33.643 44.445 61.665z"/></g></svg>