<svg id="Capa_1" enable-background="new 0 0 511.988 511.988" height="512" viewBox="0 0 511.988 511.988" width="512" xmlns="http://www.w3.org/2000/svg"><path d="m511.988 255.994c-17.777-20.58-120.754-135-256.023-135-30.977 0-63.034 6.351-95.129 18.658l-134.265-134.264-21.213 21.213 126.022 126.022c-81.679 40.624-130.292 102.111-131.38 103.371 17.794 20.613 120.707 135 255.965 135 30.975 0 63.032-6.351 95.131-18.656l134.262 134.262 21.213-21.213-126.018-126.017c81.719-40.632 130.417-102.197 131.435-103.376zm-256.023-105c79.755 0 159.813 48.557 215.594 104.995-17.607 17.786-59.056 55.833-113.475 80.912l-39.577-39.577c7.863-11.859 12.458-26.065 12.458-41.33 0-41.355-33.645-75-75-75-15.264 0-29.47 4.595-41.33 12.458l-30.335-30.336c22.281-7.35 46.439-12.122 71.665-12.122zm-40.602 85.611 59.992 59.992c-5.875 2.816-12.451 4.397-19.389 4.397-24.813 0-45-20.187-45-45-.001-6.938 1.58-13.515 4.397-19.389zm21.212-21.213c5.875-2.816 12.451-4.397 19.389-4.397 24.813 0 45 20.187 45 45 0 6.938-1.581 13.515-4.398 19.389zm19.39 145.602c-79.749 0-159.767-48.528-215.551-105 31.957-32.35 71.925-61.791 113.467-80.871l39.542 39.542c-7.863 11.859-12.458 26.065-12.458 41.33 0 41.355 33.645 75 75 75 15.264 0 29.47-4.595 41.33-12.458l30.385 30.385c-22.493 7.42-46.598 12.072-71.715 12.072z"/></svg>