<svg width="14" height="12" viewBox="0 0 14 12" fill="none" xmlns="http://www.w3.org/2000/svg">
<path d="M4.33337 11.3333C3.11688 11.334 2.05416 10.5112 1.75004 9.33335H0.333374V8.00001H1.75071C2.09713 6.65831 3.41345 5.80551 4.77956 6.03772C6.14567 6.26993 7.10629 7.50976 6.98995 8.89057C6.87361 10.2714 5.71908 11.333 4.33337 11.3333ZM4.33337 7.33335C3.60497 7.33408 3.01197 7.91925 3.00153 8.64757C2.99109 9.3759 3.56708 9.97782 4.29517 9.99943C5.02325 10.021 5.63393 9.45435 5.66671 8.72668V8.99335V8.66668C5.66671 7.9303 5.06975 7.33335 4.33337 7.33335ZM13.6667 9.33335H7.66671V8.00001H13.6667V9.33335ZM7.66671 6.00001C6.45046 6.00032 5.3881 5.17764 5.08404 4.00001H0.333374V2.66668H5.08404C5.43047 1.32498 6.74678 0.47218 8.1129 0.704388C9.479 0.936597 10.4396 2.17642 10.3233 3.55724C10.2069 4.93805 9.05241 5.99966 7.66671 6.00001ZM7.66671 2.00001C6.9383 2.00075 6.3453 2.58591 6.33486 3.31424C6.32442 4.04257 6.90042 4.64448 7.6285 4.66609C8.35658 4.6877 8.96726 4.12101 9.00004 3.39335V3.66001V3.33335C9.00004 2.59697 8.40309 2.00001 7.66671 2.00001ZM13.6667 4.00001H11V2.66668H13.6667V4.00001Z" fill="#F34D42"/>
</svg>
