<svg width="12" height="13" viewBox="0 0 12 13" fill="none" xmlns="http://www.w3.org/2000/svg">
<path d="M1.33333 12.6667H0V12C0.00293909 9.42389 2.09056 7.33627 4.66667 7.33333H7.33333C9.90944 7.33627 11.9971 9.42389 12 12V12.6667H10.6667V12C10.6645 10.16 9.17337 8.66887 7.33333 8.66667H4.66667C2.82663 8.66887 1.33554 10.16 1.33333 12V12.6667ZM6 6.66667C4.15905 6.66667 2.66667 5.17428 2.66667 3.33333C2.66667 1.49238 4.15905 0 6 0C7.84095 0 9.33333 1.49238 9.33333 3.33333C9.33113 5.17337 7.84004 6.66446 6 6.66667ZM6 1.33333C4.89543 1.33333 4 2.22876 4 3.33333C4 4.4379 4.89543 5.33333 6 5.33333C7.10457 5.33333 8 4.4379 8 3.33333C8 2.22876 7.10457 1.33333 6 1.33333Z" fill="white"/>
</svg>
